<svg width="15" height="14" viewBox="0 0 15 14" fill="none" xmlns="http://www.w3.org/2000/svg">
<path d="M4.21703 1.86659C4.09762 1.86659 3.97808 1.91207 3.88708 2.00331L2.95374 2.93664C2.77128 3.11911 2.77128 3.41453 2.95374 3.59653L6.35713 6.99992L2.95374 10.4033C2.77128 10.5858 2.77128 10.8812 2.95374 11.0632L3.88708 11.9965C4.06954 12.179 4.36497 12.179 4.54697 11.9965L7.95036 8.59315L11.3537 11.9965C11.5357 12.179 11.8316 12.179 12.0136 11.9965L12.947 11.0632C13.1294 10.8807 13.1294 10.5853 12.947 10.4033L9.54359 6.99992L12.947 3.59653C13.1294 3.41453 13.1294 3.11864 12.947 2.93664L12.0136 2.00331C11.8312 1.82084 11.5357 1.82084 11.3537 2.00331L7.95036 5.40669L4.54697 2.00331C4.45574 1.91207 4.33643 1.86659 4.21703 1.86659Z" fill="white"/>
</svg>
